<?xml version="1.0" encoding="utf-8"?>
<!-- Generator: Adobe Illustrator 24.0.2, SVG Export Plug-In . SVG Version: 6.00 Build 0)  -->
<svg version="1.1" id="Capa_1" xmlns="http://www.w3.org/2000/svg" xmlns:xlink="http://www.w3.org/1999/xlink" x="0px" y="0px"
	 viewBox="0 0 512 512" style="enable-background:new 0 0 512 512;" xml:space="preserve">
<style type="text/css">
	.st0{fill-rule:evenodd;clip-rule:evenodd;fill:url(#SVGID_1_);}
	.st1{fill-rule:evenodd;clip-rule:evenodd;fill:url(#SVGID_2_);}
	.st2{fill-rule:evenodd;clip-rule:evenodd;fill:#52BCBD;}
</style>
<g>
	<linearGradient id="SVGID_1_" gradientUnits="userSpaceOnUse" x1="100.921" y1="408.5852" x2="504.8836" y2="4.6226">
		<stop  offset="0.1204" style="stop-color:#52BCBD"/>
		<stop  offset="0.2363" style="stop-color:#6DC3C4"/>
		<stop  offset="0.493" style="stop-color:#A3D2D1"/>
		<stop  offset="0.7151" style="stop-color:#CADCDB"/>
		<stop  offset="0.8914" style="stop-color:#E2E3E1"/>
		<stop  offset="1" style="stop-color:#EBE5E3"/>
	</linearGradient>
	<path class="st0" d="M60,372.8c1.3,5.6,2.9,11.1,4.7,16.5C77.4,427.5,102.6,505,103,505.9c1.6,3.7,5.2,6.1,9.2,6.1h288.4
		c4,0,7.6-2.4,9.2-6.1c1.9-4.5,47.4-111.4,53.1-198.4c0.8-12.7,0-24.9-2-36.6c0-0.2-0.1-0.4-0.1-0.5c-4.4-25.7-14.4-49.3-25.5-71.3
		c0-0.1-0.1-0.1-0.1-0.2c-4.6-9.1-9.3-17.9-14-26.4c-15.1-27.8-29.3-54.1-30.4-78.1c-2.5-54.4,21-75.9,21.9-76.7
		c3.4-2.8,4.5-7.3,2.9-11.4c-1.5-3.8-5.4-6.2-9.5-6.2L106.5,0c-4.2,0-8.1,2.6-9.5,6.5c-1.4,4-0.3,8.3,3,11c1,0.9,24.5,22.4,22,76.8
		c-1.1,23.9-15.4,50.2-30.4,78.1c-4.6,8.5-9.4,17.3-14,26.4c0,0.1-0.1,0.1-0.1,0.2c-11.8,23.4-22.4,48.7-26.3,76.2
		c0,0.3-0.1,0.6-0.1,0.8c-1.4,10.2-1.9,20.6-1.2,31.5c1.2,18.5,4.4,39.4,9.4,62.1L60,372.8z M79.4,365.8c-1-2.9-1.8-5.9-2.4-8.9
		c-4.1-19.5-6-34.4-7.1-50.7c-0.2-3.4-0.3-6.7-0.3-10l142.2,109.3c9.6,7.3,21.7,11.9,34.6,13.1V492H118.9
		c-3.7-9-29.6-96.4-37.3-119.6L79.4,365.8z M142,95.3c1.7-36.3-7.1-60.6-15.5-75.3h259.8c-8.3,14.7-17.2,39-15.5,75.3
		c1.3,28.5,16.6,56.8,32.8,86.7c3.4,6.2,6.8,12.5,10.1,18.8c-36.4,26.7-94.4,42.4-157.3,42.4s-121-15.7-157.3-42.4
		c3.3-6.3,6.7-12.6,10.1-18.8C125.4,152.1,140.7,123.8,142,95.3z M71.8,272.7c3.3-18.8,10.1-36.6,18.2-53.8
		c39.9,27.9,100.9,44.3,166.4,44.3c65.5,0,126.5-16.4,166.4-44.3c7.4,15.8,13.7,32.1,17.3,49.1L280.7,390.5
		c-15,11.6-41,11.1-56.7-0.9L71.8,272.7z M442.9,306.3c-4.7,72.1-39.3,161.9-49,185.8H266.4v-74.2c9.9-1.8,19-5.7,26.4-11.4
		L443.1,291C443.3,296,443.3,301.1,442.9,306.3z"/>
	<linearGradient id="SVGID_2_" gradientUnits="userSpaceOnUse" x1="246.4072" y1="171.3984" x2="266.4072" y2="171.3984">
		<stop  offset="0" style="stop-color:#52BCBD"/>
		<stop  offset="0.1244" style="stop-color:#5BBFBF"/>
		<stop  offset="0.3318" style="stop-color:#75C5C6"/>
		<stop  offset="0.5965" style="stop-color:#9FD1D0"/>
		<stop  offset="0.9054" style="stop-color:#D8E0DE"/>
		<stop  offset="1" style="stop-color:#EBE5E3"/>
	</linearGradient>
	<path class="st1" d="M256.4,196.6c5.5,0,10-4.5,10-10v-30.4c0-5.5-4.5-10-10-10c-5.5,0-10,4.5-10,10v30.4
		C246.4,192.1,250.9,196.6,256.4,196.6z"/>
	<path class="st2" d="M60.9,110.3c-3.9,3.9-3.9,10.2,0,14.1c2,2,4.5,2.9,7.1,2.9s5.1-1,7.1-2.9c0,0,28.9-28.9,29-29
		c2.3-2.3,3.4-5.6,2.8-8.8c-0.4-2.1-1.3-3.9-2.8-5.4l-29-29c-3.9-3.9-10.2-3.9-14.1,0c-3.9,3.9-3.9,10.2,0,14.1l11.9,11.9H15
		c-5.5,0-10,4.5-10,10s4.5,10,10,10h57.9L60.9,110.3z"/>
	<path class="st2" d="M497.8,78.4H440l11.9-11.9c3.9-3.9,3.9-10.2,0-14.1c-3.9-3.9-10.2-3.9-14.1,0l-29,29c-2.6,2.6-3.8,7-2.4,10.5
		c0.5,1.3,1.3,2.6,2.4,3.6l29,29c2,2,4.5,2.9,7.1,2.9s5.1-1,7.1-2.9c3.9-3.9,3.9-10.2,0-14.1L440,98.4h57.9c5.5,0,10-4.5,10-10
		S503.3,78.4,497.8,78.4z"/>
</g>
</svg>
