<?xml version="1.0" encoding="utf-8"?>
<!-- Generator: Adobe Illustrator 24.0.2, SVG Export Plug-In . SVG Version: 6.00 Build 0)  -->
<svg version="1.1" id="Capa_1" xmlns="http://www.w3.org/2000/svg" xmlns:xlink="http://www.w3.org/1999/xlink" x="0px" y="0px"
	 viewBox="0 0 512 512" style="enable-background:new 0 0 512 512;" xml:space="preserve">
<style type="text/css">
	.st0{fill:url(#SVGID_1_);}
	.st1{fill:url(#SVGID_2_);}
	.st2{fill:url(#SVGID_3_);}
</style>
<g>
	<g>
		<linearGradient id="SVGID_1_" gradientUnits="userSpaceOnUse" x1="163.0082" y1="259.9144" x2="191.6131" y2="231.3095">
			<stop  offset="0" style="stop-color:#52BCBD"/>
			<stop  offset="0.1244" style="stop-color:#5BBFBF"/>
			<stop  offset="0.3318" style="stop-color:#75C5C6"/>
			<stop  offset="0.5965" style="stop-color:#9FD1D0"/>
			<stop  offset="0.9054" style="stop-color:#D8E0DE"/>
			<stop  offset="1" style="stop-color:#EBE5E3"/>
		</linearGradient>
		<path class="st0" d="M201.3,249.7c2.3-3.4,1.5-8.1-1.9-10.4c-3.4-2.3-8.1-1.5-10.4,1.9c-2.8,4.1-8.1,6.5-13,6
			c-4-0.4-8-2.8-10.3-6.2c-2.4-3.4-7-4.3-10.4-1.9c-3.4,2.3-4.3,7-1.9,10.4c4.9,7.1,12.8,11.8,21.2,12.6
			C184.8,263.2,195.4,258.3,201.3,249.7L201.3,249.7z"/>
		<linearGradient id="SVGID_2_" gradientUnits="userSpaceOnUse" x1="204.4049" y1="340.3064" x2="236.6826" y2="308.0287">
			<stop  offset="0" style="stop-color:#52BCBD"/>
			<stop  offset="0.1244" style="stop-color:#5BBFBF"/>
			<stop  offset="0.3318" style="stop-color:#75C5C6"/>
			<stop  offset="0.5965" style="stop-color:#9FD1D0"/>
			<stop  offset="0.9054" style="stop-color:#D8E0DE"/>
			<stop  offset="1" style="stop-color:#EBE5E3"/>
		</linearGradient>
		<path class="st1" d="M246.1,317.6c-3.4-2.4-8.1-1.5-10.4,1.9c-3.1,4.4-8.2,7.5-13.4,8c-6.4,0.6-13.2-2.5-16.9-7.8
			c-2.3-3.4-7-4.3-10.4-1.9c-3.4,2.3-4.3,7-1.9,10.4c3.1,4.5,7.3,8.1,12.1,10.6c6.1,3.2,11.8,4.3,18.6,3.7c9.6-1,18.6-6.3,24.2-14.4
			C250.4,324.6,249.5,320,246.1,317.6L246.1,317.6z"/>
		<linearGradient id="SVGID_3_" gradientUnits="userSpaceOnUse" x1="41.8807" y1="507.4299" x2="399.1959" y2="150.1147">
			<stop  offset="0" style="stop-color:#52BCBD"/>
			<stop  offset="0.1244" style="stop-color:#5BBFBF"/>
			<stop  offset="0.3318" style="stop-color:#75C5C6"/>
			<stop  offset="0.5965" style="stop-color:#9FD1D0"/>
			<stop  offset="0.9054" style="stop-color:#D8E0DE"/>
			<stop  offset="1" style="stop-color:#EBE5E3"/>
		</linearGradient>
		<path class="st2" d="M467.9,408.7c-2.8-3-7.6-3.1-10.6-0.3l-7.3,7l-34.1-35.9l10.4-9.9c2.7-2.6,4.3-6.1,4.4-9.8
			c0.1-3.7-1.3-7.3-3.8-10l-9.7-10.2c-2.6-2.7-6.1-4.3-9.8-4.4c-3.7-0.1-7.3,1.3-10,3.8l-0.7,0.7L382,324.3c-2.8-3-7.6-3.1-10.6-0.3
			c-3,2.8-3.1,7.6-0.3,10.6l14.6,15.4l-28.5,27l-59.2-62.4l28.5-27l21.2,22.3c2.8,3,7.6,3.1,10.6,0.3c3-2.8,3.1-7.6,0.3-10.6
			l-14-14.8c0.8-5.3,1.4-10.7,1.7-16c0.1-2.2,0.2-4.8,0.3-7.8l9.3-15.6c4-6.6,7.4-13.3,10.3-20c17-38.7,3.5-86.7-17.5-117.1
			c-17-24.6-40.7-42.4-69.6-52.4c0.9-14.2-2.4-26-9.9-35.4C252.9,0.1,223.1,0,220.5,0c-2.6,0-32.4,0.1-48.6,20.5
			c-7.2,9-10.5,20.4-10,33.9c-3.7,1.2-7.2,2.7-10.6,4.4c-21.7,9.7-55.6,31.3-74.3,76.7c0,0,0,0.1,0,0.1c-5.3,13.7-8.7,29.5-9.6,44.4
			c-1,17.1,1.4,32.8,6.9,45.3c2.9,6.6,6.4,13.4,10.4,20l9.9,16.5c0.1,2.4,0.1,4.7,0.3,6.9c2,37.9,17.8,73.3,48.4,108.4
			c6.6,7.6,14.5,15.1,23.5,22.2l1.7,17.9c0,0.1,0,0.2,0,0.3c1.2,8.4-4.1,16.5-12.3,18.8l-79.4,22.3c-20.4,5.7-34.7,24.5-34.7,45.8
			c0,4.1,3.4,7.5,7.5,7.5h342c4.1,0,7.5-3.4,7.5-7.5c0-21.2-14.3-40-34.7-45.8L285,436.5c-8.2-2.3-13.5-10.4-12.3-18.8
			c0-0.1,0-0.2,0-0.3l1.7-17.9c9-7.2,16.9-14.6,23.5-22.2c6.5-7.5,12.4-15,17.5-22.5l31,32.7l-0.7,0.7c-2.7,2.6-4.3,6.1-4.4,9.8
			c-0.1,3.7,1.3,7.3,3.8,10l9.7,10.2c2.6,2.7,6.1,4.3,9.8,4.4c0.1,0,0.3,0,0.4,0c3.6,0,7-1.4,9.6-3.8l10.4-9.9l34.1,35.9l-7.3,7
			c-3,2.8-3.1,7.6-0.3,10.6c1.5,1.6,3.5,2.3,5.4,2.3c1.9,0,3.7-0.7,5.2-2.1l45.5-43.1C470.6,416.4,470.7,411.7,467.9,408.7
			L467.9,408.7z M287.8,303.7l-21.5-22.7l28.5-27l21.5,22.7L287.8,303.7z M263.9,262.7l-10.9-11.4c-0.6-0.7-0.6-1.7,0.1-2.3
			l10.3-9.7c0.3-0.3,0.7-0.4,1.1-0.4c0.4,0,0.9,0.2,1.2,0.5l10.9,11.4L263.9,262.7z M183.6,29.9C195.2,15.2,218.8,15,220.3,15h0.1
			c0.1,0,0.2,0,0.3,0c0.2,0,24.9,0,36.8,14.8c4.5,5.6,6.8,12.9,6.8,21.7c-7.7-1.9-15.6-3.3-23.9-4.2c-10.4-1.1-20.6-1.5-30.4-1.2
			c-11.5,0.4-22.6,1.8-33.1,4.2C177.1,42.1,179.3,35.2,183.6,29.9z M166.7,68.6c13-4.4,26.6-6.7,40.2-7.4
			c49.1-2.6,100.5,13.6,129.5,55.6c25.8,37.4,26.7,78.5,16.1,102.6c-2.9,6.6-6.3,12.9-10,19.1c-6.2-23.8-17.9-46.4-34.8-67.3
			c-18.9-23.3-44.6-44.3-74.3-60.9c-27.2-15.2-58.3-24-90-25.5c-2.1-0.1-4-0.2-5.9-0.2C147,78.1,156.3,72.1,166.7,68.6L166.7,68.6z
			 M280.9,450.9l79.4,22.3c11.5,3.2,20.2,12.5,22.9,23.8H57.9c2.7-11.3,11.4-20.6,22.9-23.8l79.4-22.3c15.3-4.3,25.2-19.4,23.1-35.1
			l-0.5-5.2c11.8,6.5,24.8,9.7,37.7,9.7c13,0,26-3.2,37.7-9.7l-0.5,5.2C255.7,431.5,265.6,446.6,280.9,450.9L280.9,450.9z
			 M286.6,367.3c-7.7,8.8-17.3,17.5-28.6,25.7c-22.4,16.4-52.5,16.4-75,0c-11.2-8.2-20.9-16.9-28.6-25.7
			c-28.3-32.4-42.9-64.9-44.7-99.3c-0.2-3.2-0.3-6.8-0.3-10.5c5.1-33.9,21.1-66.6,45.3-92.4c2.8-3,2.7-7.8-0.3-10.6
			c-3-2.8-7.8-2.7-10.6,0.3c-22.2,23.7-38.1,52.8-45.8,83.6l-0.4-0.7c-3.6-6.1-6.8-12.3-9.5-18.3c-10.1-23-5.8-55.8,2.9-78.2
			c6.4-15.5,15.2-29,26.3-40.5c2.6-0.7,9.1-1.7,25.5-0.9c20.9,1,41.6,5.5,60.8,13c-11.2,4.7-22.1,10.8-32.4,18.1
			c-3.4,2.4-4.2,7.1-1.8,10.4s7.1,4.2,10.4,1.8c13.5-9.6,28.1-16.8,43.1-21.4c1.1,0.6,2.2,1.2,3.2,1.7
			c82,45.7,101.2,105.2,105.4,136.7c0.2,1.4,0.1,2.9,0.1,4.3c-0.1,2.1-0.3,4.1-0.5,6.2c-5.3-5.6-26-27.4-26-27.4
			c-4.6-4.8-11.8-5.7-17.4-2.4L276.6,229c-6.2-6.5-16.5-6.9-23.2-0.9l-29.7-31.3c-2.8-3-7.6-3.1-10.6-0.3c-3,2.8-3.1,7.6-0.3,10.6
			l29.7,31.3c-6.4,6.3-6.5,16.6-0.3,23.2l11.1,11.7c-1.4,2.2-2.3,4.7-2.3,7.4c-0.1,3.8,1.3,7.3,3.9,10.1l50,52.7
			C299.3,351.8,293.2,359.8,286.6,367.3z M365.1,407l-8.3-8.8l50.2-47.6l8.3,8.8L365.1,407z M430.1,434.2L396,398.3l9-8.6l34.1,35.9
			L430.1,434.2z"/>
	</g>
</g>
</svg>
