<?xml version="1.0" encoding="utf-8"?>
<!-- Generator: Adobe Illustrator 24.0.2, SVG Export Plug-In . SVG Version: 6.00 Build 0)  -->
<svg version="1.1" id="Capa_1" xmlns="http://www.w3.org/2000/svg" xmlns:xlink="http://www.w3.org/1999/xlink" x="0px" y="0px"
	 viewBox="0 0 1080 1080" style="enable-background:new 0 0 1080 1080;" xml:space="preserve">
<style type="text/css">
	.st0{fill:#FFFFFF;}
</style>
<g>
	<g>
		<path class="st0" d="M1073.9,532.2c0.1-261-189.7-480.9-449-520.4C346.2-30.7,81.3,159.3,31.2,437.1c-20.6,114.5-4.9,223.8,46,328
			c5.6,11.5,6.2,21,2.1,32.8C56.2,865.8,34.2,934.1,11,1001.9c-7.3,21.2-7.9,40.6,8.1,57.6c16.1,17.1,35.9,16.9,57.2,11.2
			c76.3-20.4,152.6-40.7,229.1-60c9.3-2.3,21.1-1.3,30,2.5c272.9,117.3,580.6-5,697.8-277.8C1059.7,673.7,1073.9,602.8,1073.9,532.2
			z M77.3,1004.7c2.7-8.9,4.2-14,5.9-19.1c21.6-64.9,42.9-129.8,65.1-194.5c4.2-12.2,2.9-21.5-3.3-32.7
			C87.4,654.2,70.4,543.6,97.5,427.7c56-239.2,281.9-389.9,526-352.3c260.4,40.1,436.6,302.9,375.9,560.3
			c-65.6,278.2-360.2,432.1-624.9,323.7c-38.1-15.6-70.3-16.3-107.8-5.1C205.5,972.7,143.3,987.4,77.3,1004.7z"/>
		<path class="st0" d="M690.9,839.9c80.9,5.1,129.8-41.2,166.9-104.7c13.1-22.4,1.1-52.1-24-60.3c-42.3-13.7-85.1-25.6-128.1-37.1
			c-14.8-4-28.7,1.3-39.8,12.2c-8.3,8.2-16.4,16.7-24.6,25c-20.6,20.9-38,26-62.5,9.7c-39.2-26.1-77.7-53.8-113.2-84.6
			c-28.3-24.6-53-53.8-76.8-83c-18.8-23.2-18.6-41.4,2-62.9c31.6-33,36-65.5,12.7-105c-14.3-24.3-23.3-51.6-34.9-77.5
			c-15.3-34.3-47.5-42-75.8-17.8c-28.1,24.1-54,50.7-66.7,86.2c-18.6,51.6-8.2,102.2,11,151.3c28.4,72.6,77.3,130.8,132.5,184
			c64.9,62.6,135.3,118,222.3,146.7c31.9,10.5,65.7,15.2,98.6,22.6C690.7,843,690.8,841.5,690.9,839.9z"/>
	</g>
</g>
</svg>
