<?xml version="1.0" encoding="utf-8"?>
<!-- Generator: Adobe Illustrator 24.0.2, SVG Export Plug-In . SVG Version: 6.00 Build 0)  -->
<svg version="1.1" id="Capa_1" xmlns="http://www.w3.org/2000/svg" xmlns:xlink="http://www.w3.org/1999/xlink" x="0px" y="0px"
	 viewBox="0 0 1080 1080" style="enable-background:new 0 0 1080 1080;" xml:space="preserve">
<style type="text/css">
	.st0{fill:#FFFFFF;}
</style>
<g>
	<g>
		<path class="st0" d="M415.8,813.5c0,83,0.3,166-0.3,248.9c-0.1,13.4,3.7,17.7,17.3,17.5c60-0.7,119.9-0.8,179.9,0
			c14.8,0.2,17.8-5.1,17.7-18.6c-0.4-164.9-0.3-329.9-0.2-494.8c0-23.5,0-23.4,23.6-23.3c38.4,0.1,76.9-0.4,115.3,0.2
			c13.9,0.2,19.2-3.4,20.3-18.7c2.8-36.2,8.6-72.1,12.9-108.1c1.6-13.2,2.3-26.5,3.5-39.7c1-11.3-6.9-10.7-14.2-10.7
			c-42.5,0-85.1,0-127.6,0c-33.9,0-33.9,0-33.9-34.1c0-28.7-0.2-57.4,0.1-86c0.4-31.7,15.6-50.9,46.8-53.9
			c36.6-3.5,73.5-4.4,110.3-5.1c14.2-0.3,20.1-3.8,19.8-19.2c-0.9-47.1-0.7-94.2-0.1-141.4c0.2-12.6-3.6-17.2-16.6-17.1
			c-48.7,0.6-97.5-2.3-146,0.8c-74,4.8-140.1,29.1-184.7,93.2c-18.5,26.6-29.7,56.3-37,88.1c-11.9,52.3-5.5,105.1-6.6,157.6
			c-0.3,13.7-4.2,17.5-17.6,17.2c-36.9-0.8-73.8,0.1-110.7-0.5c-11.5-0.2-15.1,3.9-15,15.2c0.5,48.7,0.6,97.3,0,146
			c-0.2,13.3,5.2,16.5,17.4,16.3c35.9-0.6,71.8,0.5,107.6-0.6c15-0.5,18.2,5.3,18.1,18.7C415.6,645.5,415.8,729.5,415.8,813.5z"/>
	</g>
</g>
</svg>
