<?xml version="1.0" encoding="utf-8"?>
<!-- Generator: Adobe Illustrator 24.0.2, SVG Export Plug-In . SVG Version: 6.00 Build 0)  -->
<svg version="1.1" id="Capa_1" xmlns="http://www.w3.org/2000/svg" xmlns:xlink="http://www.w3.org/1999/xlink" x="0px" y="0px"
	 viewBox="0 0 1080 1080" style="enable-background:new 0 0 1080 1080;" xml:space="preserve">
<style type="text/css">
	.st0{fill:#FFFFFF;}
</style>
<g>
	<g>
		<path class="st0" d="M2.2,540.7c0-73.4-0.2-146.9,0-220.3c0.6-176.9,141.1-317.6,318-318c146-0.3,291.9-0.3,437.9,0
			c159,0.4,289.8,111.5,315.8,268.3c2.6,15.9,3.4,32.2,3.5,48.3c0.3,145-1.2,290.1,0.5,435.1c1.9,156.1-109.9,293.2-264.7,319
			c-23.1,3.8-46.9,4.4-70.3,4.5c-140.9,0.4-281.8,0.4-422.6,0c-177-0.5-317.3-140.9-318-318C1.9,686.7,2.2,613.7,2.2,540.7z
			 M979.6,540c0-73.4,0.5-146.9-0.1-220.3c-1.1-123.6-95.8-218.6-219.3-219.2c-146.9-0.7-293.8-0.7-440.7,0
			c-123.4,0.6-218.6,95.7-219.2,219.2c-0.7,146.9-0.7,293.8,0,440.7c0.6,123.5,95.6,218.5,219.2,219.2c146,0.8,291.9,0.8,437.9,0
			c127.3-0.6,221-94.6,222.1-222C980.1,685,979.6,612.5,979.6,540z"/>
		<path class="st0" d="M540.5,246.4c160.3,0.1,292.9,133,292.9,293.5c0,161.1-133,293.9-294.3,293.6
			c-160.4-0.2-293-133.1-292.9-293.6C246.3,378.8,379.1,246.3,540.5,246.4z M735.1,540.4c0.2-108.6-86.6-195.6-195.2-195.6
			c-108,0-194.7,86.2-195.3,194.2c-0.5,108.6,86,195.9,194.5,196.3C647.7,735.6,734.9,648.9,735.1,540.4z"/>
		<path class="st0" d="M829.2,207.2c24.4,0.3,43.6,19.8,43.6,44.3c0,24.8-20.3,44.8-45,44.4c-24-0.3-43.7-20.4-43.7-44.5
			C784,226.6,804.1,206.9,829.2,207.2z"/>
	</g>
</g>
</svg>
