<?xml version="1.0" encoding="utf-8"?>
<!-- Generator: Adobe Illustrator 24.0.2, SVG Export Plug-In . SVG Version: 6.00 Build 0)  -->
<svg version="1.1" id="Capa_1" xmlns="http://www.w3.org/2000/svg" xmlns:xlink="http://www.w3.org/1999/xlink" x="0px" y="0px"
	 viewBox="0 0 2208 622" style="enable-background:new 0 0 2208 622;" xml:space="preserve">
<style type="text/css">
	.st0{opacity:0.77;}
	.st1{fill:#FFFFFF;}
	.st2{fill:#28B3B0;}
</style>
<g id="XMLID_6_" class="st0">
	<image style="overflow:visible;" width="552" height="394" xlink:href="3EC789AE.png"  transform="matrix(1 0 0 1 -36 245)">
	</image>
</g>
<path id="XMLID_4_" class="st1" d="M11.4,290.6c0,0,330.1-79.2,500,313.6C511.4,604.2,145,647.3,11.4,290.6z"/>
<g id="XMLID_20_" class="st0">
	<image style="overflow:visible;" width="363" height="598" xlink:href="3EC789A8.png"  transform="matrix(1 0 0 1 195 32)">
	</image>
</g>
<path id="XMLID_12_" class="st1" d="M254.9,73.4c0,0,321.5,108.8,256.2,531.7C511.1,605,178,446.4,254.9,73.4z"/>
<g id="XMLID_23_" class="st0">
	<image style="overflow:visible;" width="393" height="552" xlink:href="3EC789A7.png"  transform="matrix(1 0 0 1 462.5 52.5)">
	</image>
</g>
<path id="XMLID_19_" class="st1" d="M810.3,100.4c0,0,79.2,330.1-313.6,500C496.7,600.4,453.6,233.9,810.3,100.4z"/>
<g id="XMLID_14_" class="st0">
	<image style="overflow:visible;" width="591" height="371" xlink:href="3EC789B8.png"  transform="matrix(1 0 0 1 463.5 274.5)">
	</image>
</g>
<path id="XMLID_9_" class="st1" d="M1012.9,331.1c0,0-99.8,324.4-524.4,270.9C488.5,602,637.8,264.6,1012.9,331.1z"/>
<g id="XMLID_22_" class="st0">
	<image style="overflow:visible;" width="302" height="649" xlink:href="3EC789B9.png"  transform="matrix(1 0 0 1 357 -35)">
	</image>
</g>
<path id="XMLID_5_" class="st1" d="M500.7,14.8c0,0,246.5,233.4,10.2,590.1C510.9,605,274.7,321.4,500.7,14.8z"/>
<path id="XMLID_16_" class="st2" d="M610.7,323c0,0-15.8,132.4-104.7,214.3c0,0-83.2-72.5-105-216c0,0-10.9,180,105.5,277.7
	C506.5,599.1,641,458.4,610.7,323z"/>
<circle id="XMLID_15_" class="st2" cx="501.2" cy="391.8" r="41.4"/>
<g>
	<path class="st1" d="M1154.2,272.8c0,4.9,0.3,8.9,1,11.9c0.6,3,2,5.4,4,7c2,1.6,4.8,2.7,8.5,3.4c3.7,0.6,8.6,1,14.8,1.2v7.8h-77.1
		v-7.8c4.3-0.1,7.8-0.5,10.5-1.2c2.7-0.6,4.8-1.7,6.2-3.3c1.4-1.6,2.4-3.7,2.9-6.6c0.5-2.8,0.8-6.5,0.8-11v-89.5
		c0-4.5-0.2-8.2-0.7-10.9c-0.5-2.8-1.3-5-2.6-6.6c-1.3-1.6-3.1-2.7-5.5-3.3c-2.4-0.6-5.5-1-9.4-1.3v-7.8h118.6l2.3,40.9h-8.1
		c-0.8-5.6-1.9-10.2-3.4-14c-1.5-3.8-3.6-6.9-6.3-9.3c-2.7-2.4-6.2-4.1-10.5-5.1c-4.3-1-9.5-1.6-15.7-1.6h-26.7
		c-2.3,0-3.5,1.1-3.5,3.3v56c7.9,0,14.3-0.3,19.3-1c5-0.6,8.9-1.9,11.9-3.8c3-1.9,5.1-4.4,6.4-7.7c1.3-3.2,2.2-7.5,2.7-12.8h7.2
		v60.7h-7.2c-0.8-5.4-1.9-9.8-3.3-13.1c-1.4-3.3-3.6-5.8-6.5-7.6c-2.9-1.7-6.8-2.9-11.7-3.6c-4.9-0.6-11.2-1-18.8-1V272.8z"/>
	<path class="st1" d="M1450,304h-133.5v-7.8c4.3-0.1,7.8-0.5,10.5-1.2c2.7-0.6,4.8-1.7,6.2-3.3c1.4-1.6,2.4-3.7,2.9-6.6
		c0.5-2.8,0.8-6.5,0.8-11v-89.5c0-4.5-0.2-8.2-0.7-10.9c-0.5-2.8-1.3-5-2.6-6.6c-1.3-1.6-3.1-2.7-5.5-3.3c-2.4-0.6-5.5-1-9.4-1.3
		v-7.8h66.9v7.8c-4.4,0.1-7.9,0.5-10.6,1.2c-2.6,0.6-4.7,1.8-6.1,3.5c-1.4,1.7-2.4,4-2.8,7c-0.5,3-0.7,6.9-0.7,11.8v81.2
		c0,5.4,0.5,9.9,1.6,13.3c1.1,3.4,3,6.1,5.7,7.9c2.7,1.9,6.3,3.2,10.9,3.9c4.5,0.7,10.1,1.1,16.9,1.1c7.5,0,13.8-0.5,18.8-1.4
		c5-0.9,9.3-2.6,12.7-5.1c3.4-2.5,6.2-5.9,8.2-10.2c2.1-4.3,3.8-9.8,5.2-16.7h7.8L1450,304z"/>
	<path class="st1" d="M1624.9,152.8c11.6,0,22.5,2,32.6,6c10.1,4,18.8,9.5,26.3,16.5c7.4,7,13.3,15.2,17.5,24.6
		c4.3,9.4,6.4,19.6,6.4,30.6c0,10.5-2.2,20.3-6.5,29.5c-4.3,9.2-10.2,17.2-17.6,23.9c-7.4,6.8-16.2,12.1-26.3,16.1
		c-10.1,3.9-20.9,5.9-32.4,5.9c-11.5,0-22.3-2-32.4-5.9c-10.1-3.9-18.9-9.3-26.4-16.1c-7.5-6.8-13.4-14.8-17.6-23.9
		c-4.3-9.2-6.4-19-6.4-29.5c0-11,2.1-21.2,6.4-30.6c4.3-9.4,10.1-17.6,17.5-24.6c7.4-7,16.2-12.5,26.3-16.5
		C1602.5,154.9,1613.3,152.8,1624.9,152.8z M1624.9,293.3c7.5,0,14.3-1.5,20.3-4.4c6.1-2.9,11.2-7,15.5-12.4
		c4.3-5.4,7.5-11.9,9.8-19.6c2.3-7.7,3.4-16.3,3.4-25.9c0-10.1-1.1-19.2-3.4-27.2c-2.3-8.1-5.5-15-9.8-20.7
		c-4.3-5.7-9.4-10.1-15.5-13.2c-6.1-3-12.9-4.6-20.3-4.6c-7.6,0-14.4,1.5-20.4,4.6c-6,3-11.1,7.4-15.4,13.2
		c-4.3,5.8-7.5,12.7-9.8,20.7c-2.3,8.1-3.4,17.1-3.4,27.2c0,9.6,1.1,18.2,3.4,25.9c2.3,7.7,5.5,14.2,9.8,19.6
		c4.3,5.4,9.4,9.5,15.4,12.4C1610.5,291.9,1617.3,293.3,1624.9,293.3z"/>
	<path class="st1" d="M1926.1,192.2c0,10.7-3.1,19.7-9.3,26.9c-6.2,7.2-16.1,12.1-29.6,14.5l45,51.5c3.1,3.6,6.8,6.4,11,8.2
		c4.3,1.9,8.6,2.8,13,2.8v7.8h-45.9l-48.1-58.9c-3.2-3.9-6-6.5-8.4-7.8c-2.4-1.4-4.6-2-6.7-2v38c0,4.8,0.3,8.7,1,11.7
		c0.6,3,1.9,5.4,3.9,7.1c1.9,1.7,4.7,2.8,8.4,3.4c3.7,0.6,8.6,0.9,14.8,0.9v7.8h-76.9v-7.8c4.3,0,7.7-0.3,10.4-0.9
		c2.6-0.6,4.7-1.7,6.2-3.3c1.5-1.6,2.5-3.9,3-6.8c0.5-2.9,0.8-6.6,0.8-11.1v-89.5c0-4.5-0.2-8.2-0.6-10.9c-0.4-2.8-1.2-5-2.5-6.6
		c-1.3-1.6-3.1-2.7-5.5-3.3c-2.4-0.6-5.6-1-9.6-1.3v-7.8h67.1c18.7,0,33.2,3.3,43.4,9.9C1921,171.3,1926.1,180.4,1926.1,192.2z
		 M1847,223.6h12.6c12.1,0,21.2-2.4,27.2-7.1c6-4.7,9-12.5,9-23.4c0-8.3-2.5-14.9-7.6-20s-12-7.6-20.9-7.6h-16.9
		c-2.3,0-3.5,1.1-3.5,3.3V223.6z"/>
	<path class="st1" d="M2123.9,258.8h-54.8c-6.1,13.7-9.1,23.2-9.1,28.5c0,3.9,1.5,6.3,4.4,7.4c2.9,1,7.3,1.6,13.1,1.6v7.8h-53.1
		v-7.8c3.1-0.4,5.8-0.9,8-1.6c2.3-0.6,4.3-1.6,6-2.7c1.7-1.2,3.3-2.7,4.6-4.6c1.3-1.9,2.5-4.2,3.7-6.9l51-127.7h14.3l46.3,113.2
		c2.7,6.6,5,11.8,6.9,15.5c1.9,3.7,3.9,6.6,6,8.6c2.1,2,4.6,3.4,7.4,4.2c2.8,0.8,6.4,1.4,10.8,1.7v7.9H2116v-7.9
		c6.2-0.3,10.7-0.9,13.4-1.9c2.7-1,4.1-3.1,4.1-6.2c0-1.8-0.5-4.1-1.4-7c-0.9-2.8-2.1-6.3-3.7-10.5L2123.9,258.8z M2073.6,247.2
		h46.1l-22.3-58.7h-0.8L2073.6,247.2z"/>
</g>
<g>
	<path class="st1" d="M1332.7,518.9v-13h45.5v13H1332.7z"/>
	<path class="st1" d="M1426.1,493.2c6,0,10.8-0.2,14.4-0.6c3.6-0.4,6.5-1.1,8.5-2.3c2-1.2,3.4-2.9,4.3-5.1c0.8-2.2,1.5-5.3,2-9.1
		h5.2v41.1h-5.2c-0.6-3.7-1.3-6.7-2.2-9c-0.9-2.2-2.4-3.9-4.5-5.1c-2.1-1.2-4.8-1.9-8.3-2.2c-3.5-0.3-8.2-0.5-14.1-0.5v28.9
		c0,3,0.4,5.5,1.2,7.6c0.8,2.1,2.1,3.7,4,5c1.9,1.3,4.3,2.2,7.4,2.7c3.1,0.5,6.9,0.8,11.4,0.8c5.3,0,9.8-0.4,13.5-1.1
		c3.7-0.7,6.7-2.1,9.2-3.9c2.4-1.9,4.4-4.4,5.9-7.5c1.5-3.1,2.8-7.1,3.8-11.8h5.6l-2.2,32.1h-95v-5.6c3.1-0.1,5.6-0.4,7.6-0.8
		c2-0.5,3.5-1.3,4.5-2.4c1-1.1,1.7-2.7,2.1-4.8c0.4-2.1,0.6-4.7,0.6-8v-64.7c0-3.3-0.2-5.9-0.5-7.9c-0.3-2-1-3.6-1.9-4.8
		c-0.9-1.2-2.3-2-4-2.4c-1.7-0.4-4-0.7-6.8-0.9V445h88.6l1,27.5h-6c-0.6-3.9-1.4-7.2-2.7-9.7c-1.2-2.6-2.9-4.6-5-6.2
		c-2.2-1.5-4.9-2.6-8.3-3.2c-3.4-0.6-7.6-0.9-12.5-0.9h-15.8c-2.4,0-3.9,0.3-4.5,0.9c-0.6,0.6-0.8,2-0.8,4.3V493.2z"/>
	<path class="st1" d="M1504.8,552.9h-4.3v-25.5h5.9c1.6,6.7,3.9,11.6,6.9,14.7c3,3.1,6.9,4.6,11.6,4.6c3.5,0,6.1-0.7,8.1-2.2
		c1.9-1.4,2.9-3.4,2.9-6c0-2.6-1.2-5.2-3.5-7.6c-2.3-2.5-6.1-5.1-11.4-7.9c-7.1-3.8-12.2-7.6-15.3-11.4s-4.6-8.1-4.6-12.8
		c0-3.1,0.6-6,1.8-8.6c1.2-2.7,2.8-5,4.8-6.9c2-2,4.4-3.5,7.2-4.6c2.8-1.1,5.8-1.6,9.1-1.6c2.9,0,5.8,0.4,8.6,1.3
		c2.8,0.8,5.3,2,7.5,3.5l2.5-3.4h3.6v21.2h-5.5c-2.2-5.3-4.4-9.2-6.7-11.5c-2.3-2.3-5.1-3.5-8.3-3.5c-2.6,0-4.7,0.7-6.2,2.1
		c-1.5,1.4-2.3,3.3-2.3,5.6c0,2.6,1.1,5.1,3.4,7.4c2.3,2.3,6.1,4.9,11.4,7.7c3.7,2.1,7,4.1,9.7,6c2.7,2,4.9,3.9,6.6,6
		c1.7,2,2.9,4.1,3.7,6.3c0.8,2.2,1.2,4.6,1.2,7.1c0,3.3-0.6,6.2-1.8,8.8c-1.2,2.6-2.9,4.9-5.2,6.7c-2.2,1.9-4.9,3.3-8.1,4.3
		c-3.1,1-6.6,1.5-10.4,1.5c-4,0-7.8-0.5-11.2-1.6c-3.5-1.1-6.3-2.6-8.5-4.7L1504.8,552.9z"/>
	<path class="st1" d="M1561.7,486.3V480c5.6-1.6,10.3-4,14.1-7.2c3.8-3.2,6.6-6.9,8.5-11.1h7.1v17h16.1v7.7h-16.1v43
		c0,5.8,0.6,9.9,1.9,12.3c1.3,2.4,3.4,3.6,6.4,3.6c3.6,0,6.4-1.7,8.3-5l2.9,4.1c-2.6,6.6-8.8,10-18.5,10c-6.4,0-11.5-1.5-15.1-4.5
		c-3.6-3-5.4-7.2-5.4-12.6v-50.9H1561.7z"/>
	<path class="st1" d="M1687.4,539.9c-8.5,9.6-19.1,14.4-31.8,14.4c-5.8,0-11-0.9-15.8-2.7c-4.7-1.8-8.8-4.4-12.1-7.7
		c-3.4-3.3-6-7.3-7.8-11.8c-1.9-4.6-2.8-9.7-2.8-15.3c0-5.8,1-11.1,2.9-15.9c2-4.8,4.7-9,8.3-12.5c3.6-3.5,7.8-6.2,12.8-8.2
		s10.3-2.9,16.2-2.9c9.9,0,17.6,2.7,23.1,8c5.5,5.3,8.3,12.8,8.3,22.4c0,1.5-0.2,2.4-0.7,2.7c-0.5,0.3-1.8,0.5-3.9,0.5H1639
		c-0.4,0.8-0.6,2.4-0.6,4.6c0,9.2,2,16.4,6,21.7c4,5.3,9.4,8,16.2,8c3.9,0,7.8-0.9,11.7-2.7c3.9-1.8,7.6-4.3,11.3-7.6L1687.4,539.9z
		 M1660.3,503c3.7,0,6.1-0.2,7.2-0.6c1.1-0.4,1.6-1.4,1.6-3c0-4.1-1.2-7.5-3.5-10.1c-2.3-2.6-5.3-3.9-8.8-3.9c-4,0-7.6,1.7-10.7,5
		c-3.1,3.3-5.2,7.5-6.1,12.7H1660.3z M1644.3,461.7l17.8-16.7c2.2-2.1,4.3-3.7,6.2-4.6c1.9-0.9,3.8-1.4,5.7-1.4
		c2.3,0,4.2,0.6,5.6,1.7s2.1,2.7,2.1,4.6c0,1.6-0.9,3-2.6,4.2c-1.7,1.2-4.1,2.5-7.1,3.8l-19.5,8.4H1644.3z"/>
	<path class="st1" d="M1697.3,486.3V480c5.6-1.6,10.3-4,14.1-7.2c3.8-3.2,6.6-6.9,8.5-11.1h7.1v17h16.1v7.7H1727v43
		c0,5.8,0.6,9.9,1.9,12.3c1.3,2.4,3.4,3.6,6.4,3.6c3.6,0,6.4-1.7,8.3-5l2.9,4.1c-2.6,6.6-8.8,10-18.5,10c-6.4,0-11.5-1.5-15.1-4.5
		c-3.6-3-5.4-7.2-5.4-12.6v-50.9H1697.3z"/>
	<path class="st1" d="M1783.3,529.9c0,3.7,0.1,6.7,0.4,9s0.8,4,1.7,5.2c0.8,1.2,2.1,2,3.6,2.5c1.6,0.4,3.7,0.7,6.4,0.8v5.6h-44.1
		v-5.6c2.6-0.1,4.7-0.4,6.4-0.9c1.6-0.5,2.9-1.4,3.8-2.5c0.9-1.2,1.5-2.8,1.8-4.9c0.3-2.1,0.5-4.8,0.5-8.1v-17.2
		c0-5.4-0.1-9.9-0.3-13.4c-0.2-3.5-0.4-5.9-0.7-7.2c-0.5-2.3-1.5-3.9-3.2-4.6c-1.6-0.7-4.6-1.1-8.9-1.1v-4.8l32.5-5.3V529.9z
		 M1762.7,447.5c0-3.1,1.1-5.7,3.2-7.8c2.1-2.1,4.6-3.2,7.6-3.2c3.1,0,5.7,1.1,7.8,3.2c2.1,2.1,3.2,4.7,3.2,7.8c0,3-1.1,5.5-3.2,7.6
		c-2.1,2.1-4.7,3.2-7.8,3.2c-3,0-5.5-1.1-7.6-3.2C1763.8,453.1,1762.7,450.5,1762.7,447.5z"/>
	<path class="st1" d="M1871.9,541.3c-3.6,3.9-8,7-13.2,9.1c-5.3,2.2-11,3.2-17.2,3.2c-5.7,0-10.9-0.9-15.6-2.7
		c-4.7-1.8-8.7-4.4-12.1-7.6c-3.4-3.3-6-7.2-7.8-11.8c-1.8-4.6-2.7-9.7-2.7-15.3c0-5.8,1-11.1,2.9-15.8c2-4.8,4.7-8.9,8.3-12.3
		c3.5-3.4,7.8-6,12.8-7.9c5-1.9,10.4-2.8,16.4-2.8c4.2,0,8.1,0.4,11.7,1.3c3.6,0.8,6.7,2,9.3,3.5c2.6,1.5,4.6,3.2,6.1,5.3
		c1.5,2,2.2,4.2,2.2,6.5c0,2.7-0.8,4.9-2.3,6.4c-1.5,1.6-3.6,2.4-6.2,2.4c-2.2,0-4-0.6-5.7-1.7c-1.6-1.1-3.2-2.9-4.8-5.5
		c-1.4-2.2-2.6-4-3.6-5.3c-1-1.3-1.9-2.3-2.7-3s-1.7-1.2-2.5-1.4c-0.8-0.2-1.9-0.4-3.1-0.4c-5.4,0-9.6,2.5-12.6,7.6
		c-3,5-4.5,12.1-4.5,21.2c0,9.7,1.8,17.2,5.4,22.4c3.6,5.2,8.8,7.8,15.5,7.8c3.8,0,7.7-0.7,11.5-2.2c3.8-1.4,7.5-3.5,10.9-6.2
		L1871.9,541.3z"/>
	<path class="st1" d="M1925.1,505.5v-5.9c0-5.4-1-9.4-2.9-11.8c-1.9-2.5-4.9-3.7-8.9-3.7c-2.7,0-4.8,0.7-6.2,2.2
		c-1.4,1.4-2.7,3.9-3.9,7.2c-0.8,2.3-2,4.2-3.6,5.5c-1.5,1.3-3.7,2-6.4,2c-2.6,0-4.6-0.8-6-2.4c-1.4-1.6-2.1-3.8-2.1-6.7
		c0-4.5,2.5-8,7.4-10.7c4.9-2.6,12.3-3.9,22.2-3.9c10.5,0,17.9,1.9,22.4,5.7c4.5,3.8,6.7,10.1,6.7,19v30.7c0,7.9,1.6,11.9,4.8,11.9
		c1.8,0,3.4-0.6,4.9-1.8l2.1,4.1c-1.3,2.3-3.3,4.2-6.1,5.5c-2.8,1.4-5.9,2-9.3,2c-4.3,0-7.6-1.3-9.8-3.9s-3.4-6.3-3.4-11.1h-0.7
		c-2.7,4.9-6.2,8.5-10.5,11.1c-4.3,2.5-9.2,3.8-14.7,3.8c-5.9,0-10.6-1.7-14.2-5c-3.6-3.3-5.3-7.6-5.3-13c0-4.1,1.8-8,5.5-11.6
		c3.6-3.6,9.7-7.1,18.2-10.6L1925.1,505.5z M1925.1,513c-7.8,3.6-13.8,6.8-17.7,9.9c-4,3-6,6.2-6,9.5c0,2.7,0.7,4.9,2.2,6.4
		c1.5,1.6,3.4,2.4,5.6,2.4s4.3-0.4,6.3-1.2c2-0.8,3.6-1.8,5-3.2c1.4-1.3,2.5-2.9,3.3-4.7c0.8-1.8,1.2-3.8,1.2-5.8V513z"/>
	<path class="st1" d="M1966.6,518.9v-13h45.5v13H1966.6z"/>
</g>
<rect x="1287.2" y="371.8" class="st1" width="770.5" height="8.1"/>
</svg>
