<?xml version="1.0" encoding="utf-8"?>
<!-- Generator: Adobe Illustrator 24.0.2, SVG Export Plug-In . SVG Version: 6.00 Build 0)  -->
<svg version="1.1" id="Capa_1" xmlns="http://www.w3.org/2000/svg" xmlns:xlink="http://www.w3.org/1999/xlink" x="0px" y="0px"
	 viewBox="0 0 512 512" style="enable-background:new 0 0 512 512;" xml:space="preserve">
<style type="text/css">
	.st0{fill:url(#SVGID_1_);}
	.st1{fill:url(#SVGID_2_);}
	.st2{fill:#52BCBD;}
	.st3{fill:url(#SVGID_3_);}
</style>
<linearGradient id="SVGID_1_" gradientUnits="userSpaceOnUse" x1="341.5727" y1="534.5527" x2="472.6733" y2="373.1178">
	<stop  offset="0.1204" style="stop-color:#52BCBD"/>
	<stop  offset="0.2363" style="stop-color:#6DC3C4"/>
	<stop  offset="0.493" style="stop-color:#A3D2D1"/>
	<stop  offset="0.6204" style="stop-color:#B9D8D7"/>
	<stop  offset="0.7151" style="stop-color:#CADCDB"/>
	<stop  offset="0.8914" style="stop-color:#E2E3E1"/>
	<stop  offset="1" style="stop-color:#EBE5E3"/>
</linearGradient>
<path class="st0" d="M397.6,414.9c-5.1,0.7-8.7,5.3-8.7,10.4v76.8c0,13.1,20.4,13.1,20.4,0V425C409.3,418.9,403.9,414,397.6,414.9
	L397.6,414.9z"/>
<linearGradient id="SVGID_2_" gradientUnits="userSpaceOnUse" x1="104.9376" y1="423.6839" x2="421.9005" y2="70.7582">
	<stop  offset="0.1204" style="stop-color:#52BCBD"/>
	<stop  offset="0.2363" style="stop-color:#6DC3C4"/>
	<stop  offset="0.4382" style="stop-color:#A3D2D1"/>
	<stop  offset="0.687" style="stop-color:#CADCDB"/>
	<stop  offset="0.8914" style="stop-color:#E2E3E1"/>
	<stop  offset="1" style="stop-color:#EBE5E3"/>
</linearGradient>
<path class="st1" d="M370.4,118.7c0.9-18.6-5.6-36.3-18.4-49.8c-12.8-13.5-30.2-20.9-48.8-20.9h-64.9c-18.6,0-36,7.4-48.8,20.9
	c-18.1,19.1-18.8,42-17.6,66.6c-28.7,26.7-45.1,64.2-45.1,103.5v263.3c0,13.1,20.4,13.1,20.4,0V238.9c0-27.4,9.3-53.8,26.1-75
	l4.4,86.5c0.1,51.2,41.8,92.8,93,92.8s92.9-41.6,93-92.8l4-79.8c13.7,19.9,21.1,43.5,21.1,68.3v102.6c0,13.1,20.4,13.1,20.4,0V238.9
	c0-37.1-14.2-72-40-98.5L370.4,118.7z M350,117.7l-6.7,132c0,0.2,0,0.3,0,0.5c0,40-32.6,72.6-72.6,72.6c-40,0-72.6-32.6-72.6-72.6
	c0-0.2,0-0.3,0-0.5l-6.7-132c-0.7-13.4,4.2-26.1,13.8-35.7c8.9-8.9,21.2-13.6,33.8-13.6h63.3c12.6,0,24.9,4.7,33.8,13.6
	C345.8,91.5,350.7,104.2,350,117.7L350,117.7z"/>
<path class="st2" d="M505,101l-26.7-14.6l-14.6-26.7c-3.8-6.9-14.1-6.9-17.9,0l-14.6,26.7L404.5,101c-6.9,3.8-6.9,14.1,0,17.9
	l26.7,14.6l14.6,26.7c3.8,6.9,14.1,6.9,17.9,0l14.6-26.7l26.7-14.6C511.8,115.1,511.9,104.8,505,101z M478.8,109.9l-15.5,8.5
	l-8.5,15.5l-8.5-15.5l-15.5-8.5l15.5-8.5l8.5-15.5l8.5,15.5L478.8,109.9z"/>
<path class="st2" d="M41.5,60.3l24.1,13.2l13.2,24.1c3.8,6.9,14.1,6.9,17.9,0l13.2-24.1l24.1-13.2c6.9-3.8,6.9-14.1,0-17.9
	l-24.1-13.2L96.7,5.2c-3.8-6.9-14.1-6.9-17.9,0L65.6,29.3L41.5,42.4C34.6,46.2,34.6,56.6,41.5,60.3L41.5,60.3z M67.7,51.4l13-7.1
	l7.1-13l7.1,13l13,7.1l-13,7.1l-7.1,13l-7.1-13L67.7,51.4z"/>
<path class="st2" d="M104.6,288.7l-25.8-14.1l-14.1-25.8c-3.8-6.9-14.1-6.9-17.9,0l-14.1,25.8L7,288.7c-6.9,3.8-6.9,14.1,0,17.9
	l25.8,14.1l14.1,25.8c3.8,6.9,14.1,6.9,17.9,0l14.1-25.8l25.8-14.1C111.5,302.8,111.6,292.4,104.6,288.7z M63.8,305.6l-8,14.6
	l-8-14.6l-14.6-8l14.6-8l8-14.6l8,14.6l14.6,8L63.8,305.6z"/>
<linearGradient id="SVGID_3_" gradientUnits="userSpaceOnUse" x1="323.1136" y1="458.9084" x2="493.1164" y2="289.2253">
	<stop  offset="0.1204" style="stop-color:#52BCBD"/>
	<stop  offset="0.2363" style="stop-color:#6DC3C4"/>
	<stop  offset="0.493" style="stop-color:#A3D2D1"/>
	<stop  offset="0.6204" style="stop-color:#B9D8D7"/>
	<stop  offset="0.7151" style="stop-color:#CADCDB"/>
	<stop  offset="0.8914" style="stop-color:#E2E3E1"/>
	<stop  offset="1" style="stop-color:#EBE5E3"/>
</linearGradient>
<path class="st3" d="M389.7,386.9c3.4,8.2,15.5,8.3,18.9-0.1c1.1-2.6,1-5.7-0.3-8.2c-2.7-5.5-9.3-7.2-14.2-4.4
	C389.7,376.7,387.7,382.3,389.7,386.9L389.7,386.9z"/>
<path class="st2" d="M298.7,417.4c13.1,0,13.1-20.4,0-20.4h-56.9c-13.1,0-13.1,20.4,0,20.4H298.7z"/>
<path class="st2" d="M314.6,438.7h-87.8c-13.1,0-13.1,20.4,0,20.4h87.8C327.7,459.1,327.8,438.7,314.6,438.7z"/>
</svg>
